<mxfile host="app.diagrams.net" agent="Mozilla/5.0 (Windows NT 10.0; Win64; x64) AppleWebKit/537.36 (KHTML, like Gecko) Chrome/141.0.0.0 Safari/537.36" version="28.2.5">
  <diagram name="Pagina-1" id="yWjASrwZoT52qn_fOXAi">
    <mxGraphModel dx="695" dy="375" grid="1" gridSize="10" guides="1" tooltips="1" connect="1" arrows="1" fold="1" page="1" pageScale="1" pageWidth="827" pageHeight="1169" math="0" shadow="0">
      <root>
        <mxCell id="0" />
        <mxCell id="1" parent="0" />
        <mxCell id="VHTQGYUc6JYWtG76mnZ7-14" value="&lt;font style=&quot;font-size: 16px;&quot;&gt;MODEL&lt;/font&gt;" style="swimlane;whiteSpace=wrap;html=1;strokeColor=#000000;" vertex="1" parent="1">
          <mxGeometry x="60" y="40" width="900" height="1320" as="geometry" />
        </mxCell>
        <mxCell id="VHTQGYUc6JYWtG76mnZ7-18" value="" style="html=1;verticalLabelPosition=bottom;align=center;labelBackgroundColor=#ffffff;verticalAlign=top;strokeWidth=2;strokeColor=#0080F0;shadow=0;dashed=0;shape=mxgraph.ios7.icons.folder;" vertex="1" parent="VHTQGYUc6JYWtG76mnZ7-14">
          <mxGeometry x="30" y="40" width="110" height="70" as="geometry" />
        </mxCell>
        <mxCell id="VHTQGYUc6JYWtG76mnZ7-19" value="&lt;font style=&quot;font-size: 14px;&quot;&gt;&lt;b&gt;Entity&lt;/b&gt;&lt;/font&gt;" style="text;html=1;align=center;verticalAlign=middle;whiteSpace=wrap;rounded=0;" vertex="1" parent="VHTQGYUc6JYWtG76mnZ7-14">
          <mxGeometry x="42.5" y="70" width="85" height="20" as="geometry" />
        </mxCell>
        <mxCell id="VHTQGYUc6JYWtG76mnZ7-21" value="" style="endArrow=none;dashed=1;html=1;dashPattern=1 3;strokeWidth=2;rounded=0;" edge="1" parent="VHTQGYUc6JYWtG76mnZ7-14">
          <mxGeometry width="50" height="50" relative="1" as="geometry">
            <mxPoint x="80" y="1260" as="sourcePoint" />
            <mxPoint x="80" y="110" as="targetPoint" />
          </mxGeometry>
        </mxCell>
        <mxCell id="VHTQGYUc6JYWtG76mnZ7-22" value="" style="endArrow=none;dashed=1;html=1;dashPattern=1 3;strokeWidth=2;rounded=0;" edge="1" parent="VHTQGYUc6JYWtG76mnZ7-14">
          <mxGeometry width="50" height="50" relative="1" as="geometry">
            <mxPoint x="90" y="130" as="sourcePoint" />
            <mxPoint x="160" y="130" as="targetPoint" />
          </mxGeometry>
        </mxCell>
        <mxCell id="VHTQGYUc6JYWtG76mnZ7-24" value="&lt;font style=&quot;font-size: 10px;&quot;&gt;AgenziaImmobiliare&lt;/font&gt;" style="text;html=1;align=center;verticalAlign=middle;whiteSpace=wrap;rounded=0;" vertex="1" parent="VHTQGYUc6JYWtG76mnZ7-14">
          <mxGeometry x="200" y="110" width="100" height="35" as="geometry" />
        </mxCell>
        <mxCell id="VHTQGYUc6JYWtG76mnZ7-25" value="" style="endArrow=none;dashed=1;html=1;dashPattern=1 3;strokeWidth=2;rounded=0;" edge="1" parent="VHTQGYUc6JYWtG76mnZ7-14">
          <mxGeometry width="50" height="50" relative="1" as="geometry">
            <mxPoint x="90" y="170" as="sourcePoint" />
            <mxPoint x="160" y="170" as="targetPoint" />
          </mxGeometry>
        </mxCell>
        <mxCell id="VHTQGYUc6JYWtG76mnZ7-27" value="&lt;font style=&quot;font-size: 10px;&quot;&gt;AnnuncioImmobiliare&lt;/font&gt;" style="text;html=1;align=center;verticalAlign=middle;whiteSpace=wrap;rounded=0;" vertex="1" parent="VHTQGYUc6JYWtG76mnZ7-14">
          <mxGeometry x="200" y="155" width="100" height="35" as="geometry" />
        </mxCell>
        <mxCell id="VHTQGYUc6JYWtG76mnZ7-28" value="" style="endArrow=none;dashed=1;html=1;dashPattern=1 3;strokeWidth=2;rounded=0;" edge="1" parent="VHTQGYUc6JYWtG76mnZ7-14">
          <mxGeometry width="50" height="50" relative="1" as="geometry">
            <mxPoint x="90" y="210" as="sourcePoint" />
            <mxPoint x="160" y="210" as="targetPoint" />
          </mxGeometry>
        </mxCell>
        <mxCell id="VHTQGYUc6JYWtG76mnZ7-30" value="&lt;font style=&quot;font-size: 10px;&quot;&gt;Authority&lt;/font&gt;" style="text;html=1;align=center;verticalAlign=middle;whiteSpace=wrap;rounded=0;" vertex="1" parent="VHTQGYUc6JYWtG76mnZ7-14">
          <mxGeometry x="200" y="200" width="60" height="35" as="geometry" />
        </mxCell>
        <mxCell id="VHTQGYUc6JYWtG76mnZ7-31" value="" style="endArrow=none;dashed=1;html=1;dashPattern=1 3;strokeWidth=2;rounded=0;" edge="1" parent="VHTQGYUc6JYWtG76mnZ7-14">
          <mxGeometry width="50" height="50" relative="1" as="geometry">
            <mxPoint x="90" y="250" as="sourcePoint" />
            <mxPoint x="160" y="250" as="targetPoint" />
          </mxGeometry>
        </mxCell>
        <mxCell id="VHTQGYUc6JYWtG76mnZ7-33" value="&lt;font style=&quot;font-size: 10px;&quot;&gt;CaratteristicheAggiuntive&lt;/font&gt;" style="text;html=1;align=center;verticalAlign=middle;whiteSpace=wrap;rounded=0;" vertex="1" parent="VHTQGYUc6JYWtG76mnZ7-14">
          <mxGeometry x="200" y="237.5" width="110" height="35" as="geometry" />
        </mxCell>
        <mxCell id="VHTQGYUc6JYWtG76mnZ7-34" value="" style="endArrow=none;dashed=1;html=1;dashPattern=1 3;strokeWidth=2;rounded=0;" edge="1" parent="VHTQGYUc6JYWtG76mnZ7-14">
          <mxGeometry width="50" height="50" relative="1" as="geometry">
            <mxPoint x="90" y="290" as="sourcePoint" />
            <mxPoint x="160" y="290" as="targetPoint" />
          </mxGeometry>
        </mxCell>
        <mxCell id="VHTQGYUc6JYWtG76mnZ7-36" value="&lt;font style=&quot;font-size: 10px;&quot;&gt;CategoriaNotifica&lt;/font&gt;" style="text;html=1;align=center;verticalAlign=middle;whiteSpace=wrap;rounded=0;" vertex="1" parent="VHTQGYUc6JYWtG76mnZ7-14">
          <mxGeometry x="200" y="277.5" width="80" height="35" as="geometry" />
        </mxCell>
        <mxCell id="VHTQGYUc6JYWtG76mnZ7-37" value="" style="endArrow=none;dashed=1;html=1;dashPattern=1 3;strokeWidth=2;rounded=0;" edge="1" parent="VHTQGYUc6JYWtG76mnZ7-14">
          <mxGeometry width="50" height="50" relative="1" as="geometry">
            <mxPoint x="90" y="330" as="sourcePoint" />
            <mxPoint x="160" y="330" as="targetPoint" />
          </mxGeometry>
        </mxCell>
        <mxCell id="VHTQGYUc6JYWtG76mnZ7-39" value="&lt;font style=&quot;font-size: 10px;&quot;&gt;Contatto&lt;/font&gt;" style="text;html=1;align=center;verticalAlign=middle;whiteSpace=wrap;rounded=0;" vertex="1" parent="VHTQGYUc6JYWtG76mnZ7-14">
          <mxGeometry x="200" y="321.25" width="50" height="35" as="geometry" />
        </mxCell>
        <mxCell id="VHTQGYUc6JYWtG76mnZ7-40" value="" style="endArrow=none;dashed=1;html=1;dashPattern=1 3;strokeWidth=2;rounded=0;" edge="1" parent="VHTQGYUc6JYWtG76mnZ7-14">
          <mxGeometry width="50" height="50" relative="1" as="geometry">
            <mxPoint x="90" y="370" as="sourcePoint" />
            <mxPoint x="160" y="370" as="targetPoint" />
          </mxGeometry>
        </mxCell>
        <mxCell id="VHTQGYUc6JYWtG76mnZ7-45" value="&lt;font style=&quot;font-size: 10px;&quot;&gt;ContattoAffitto&lt;/font&gt;" style="text;html=1;align=center;verticalAlign=middle;whiteSpace=wrap;rounded=0;" vertex="1" parent="VHTQGYUc6JYWtG76mnZ7-14">
          <mxGeometry x="200" y="400" width="80" height="35" as="geometry" />
        </mxCell>
        <mxCell id="VHTQGYUc6JYWtG76mnZ7-46" value="" style="endArrow=none;dashed=1;html=1;dashPattern=1 3;strokeWidth=2;rounded=0;" edge="1" parent="VHTQGYUc6JYWtG76mnZ7-14">
          <mxGeometry width="50" height="50" relative="1" as="geometry">
            <mxPoint x="90" y="450" as="sourcePoint" />
            <mxPoint x="160" y="450" as="targetPoint" />
          </mxGeometry>
        </mxCell>
        <mxCell id="VHTQGYUc6JYWtG76mnZ7-48" value="&lt;font style=&quot;font-size: 10px;&quot;&gt;ContattoVendita&lt;/font&gt;" style="text;html=1;align=center;verticalAlign=middle;whiteSpace=wrap;rounded=0;" vertex="1" parent="VHTQGYUc6JYWtG76mnZ7-14">
          <mxGeometry x="200" y="440" width="80" height="35" as="geometry" />
        </mxCell>
        <mxCell id="VHTQGYUc6JYWtG76mnZ7-49" value="" style="endArrow=none;dashed=1;html=1;dashPattern=1 3;strokeWidth=2;rounded=0;" edge="1" parent="VHTQGYUc6JYWtG76mnZ7-14">
          <mxGeometry width="50" height="50" relative="1" as="geometry">
            <mxPoint x="90" y="490" as="sourcePoint" />
            <mxPoint x="160" y="490" as="targetPoint" />
          </mxGeometry>
        </mxCell>
        <mxCell id="VHTQGYUc6JYWtG76mnZ7-51" value="&lt;font style=&quot;font-size: 10px;&quot;&gt;DatiImpiegato&lt;/font&gt;" style="text;html=1;align=center;verticalAlign=middle;whiteSpace=wrap;rounded=0;" vertex="1" parent="VHTQGYUc6JYWtG76mnZ7-14">
          <mxGeometry x="202.5" y="487.5" width="65" height="30" as="geometry" />
        </mxCell>
        <mxCell id="VHTQGYUc6JYWtG76mnZ7-52" value="" style="endArrow=none;dashed=1;html=1;dashPattern=1 3;strokeWidth=2;rounded=0;" edge="1" parent="VHTQGYUc6JYWtG76mnZ7-14">
          <mxGeometry width="50" height="50" relative="1" as="geometry">
            <mxPoint x="90" y="530" as="sourcePoint" />
            <mxPoint x="160" y="530" as="targetPoint" />
          </mxGeometry>
        </mxCell>
        <mxCell id="VHTQGYUc6JYWtG76mnZ7-54" value="&lt;font style=&quot;font-size: 10px;&quot;&gt;ImmaginiImmobili&lt;/font&gt;" style="text;html=1;align=center;verticalAlign=middle;whiteSpace=wrap;rounded=0;" vertex="1" parent="VHTQGYUc6JYWtG76mnZ7-14">
          <mxGeometry x="200" y="517.5" width="90" height="40" as="geometry" />
        </mxCell>
        <mxCell id="VHTQGYUc6JYWtG76mnZ7-55" value="" style="endArrow=none;dashed=1;html=1;dashPattern=1 3;strokeWidth=2;rounded=0;" edge="1" parent="VHTQGYUc6JYWtG76mnZ7-14">
          <mxGeometry width="50" height="50" relative="1" as="geometry">
            <mxPoint x="95" y="580" as="sourcePoint" />
            <mxPoint x="165" y="580" as="targetPoint" />
          </mxGeometry>
        </mxCell>
        <mxCell id="VHTQGYUc6JYWtG76mnZ7-57" value="&lt;font style=&quot;font-size: 10px;&quot;&gt;Immobile&lt;/font&gt;" style="text;html=1;align=center;verticalAlign=middle;whiteSpace=wrap;rounded=0;" vertex="1" parent="VHTQGYUc6JYWtG76mnZ7-14">
          <mxGeometry x="200" y="577.5" width="65" height="30" as="geometry" />
        </mxCell>
        <mxCell id="VHTQGYUc6JYWtG76mnZ7-58" value="" style="endArrow=none;dashed=1;html=1;dashPattern=1 3;strokeWidth=2;rounded=0;" edge="1" parent="VHTQGYUc6JYWtG76mnZ7-14">
          <mxGeometry width="50" height="50" relative="1" as="geometry">
            <mxPoint x="95" y="620" as="sourcePoint" />
            <mxPoint x="165" y="620" as="targetPoint" />
          </mxGeometry>
        </mxCell>
        <mxCell id="VHTQGYUc6JYWtG76mnZ7-60" value="&lt;font style=&quot;font-size: 10px;&quot;&gt;Indirizzo&lt;/font&gt;" style="text;html=1;align=center;verticalAlign=middle;whiteSpace=wrap;rounded=0;" vertex="1" parent="VHTQGYUc6JYWtG76mnZ7-14">
          <mxGeometry x="202.5" y="618.25" width="55" height="21" as="geometry" />
        </mxCell>
        <mxCell id="VHTQGYUc6JYWtG76mnZ7-61" value="" style="endArrow=none;dashed=1;html=1;dashPattern=1 3;strokeWidth=2;rounded=0;" edge="1" parent="VHTQGYUc6JYWtG76mnZ7-14">
          <mxGeometry width="50" height="50" relative="1" as="geometry">
            <mxPoint x="95" y="660" as="sourcePoint" />
            <mxPoint x="165" y="660" as="targetPoint" />
          </mxGeometry>
        </mxCell>
        <mxCell id="VHTQGYUc6JYWtG76mnZ7-63" value="&lt;font style=&quot;font-size: 10px;&quot;&gt;Notifica&lt;/font&gt;" style="text;html=1;align=center;verticalAlign=middle;whiteSpace=wrap;rounded=0;" vertex="1" parent="VHTQGYUc6JYWtG76mnZ7-14">
          <mxGeometry x="200" y="658.25" width="55" height="21" as="geometry" />
        </mxCell>
        <mxCell id="VHTQGYUc6JYWtG76mnZ7-64" value="" style="endArrow=none;dashed=1;html=1;dashPattern=1 3;strokeWidth=2;rounded=0;" edge="1" parent="VHTQGYUc6JYWtG76mnZ7-14">
          <mxGeometry width="50" height="50" relative="1" as="geometry">
            <mxPoint x="95" y="700" as="sourcePoint" />
            <mxPoint x="165" y="700" as="targetPoint" />
          </mxGeometry>
        </mxCell>
        <mxCell id="VHTQGYUc6JYWtG76mnZ7-66" value="&lt;font style=&quot;font-size: 10px;&quot;&gt;Proposta&lt;/font&gt;" style="text;html=1;align=center;verticalAlign=middle;whiteSpace=wrap;rounded=0;" vertex="1" parent="VHTQGYUc6JYWtG76mnZ7-14">
          <mxGeometry x="200" y="698.25" width="55" height="21" as="geometry" />
        </mxCell>
        <mxCell id="VHTQGYUc6JYWtG76mnZ7-67" value="" style="endArrow=none;dashed=1;html=1;dashPattern=1 3;strokeWidth=2;rounded=0;" edge="1" parent="VHTQGYUc6JYWtG76mnZ7-14">
          <mxGeometry width="50" height="50" relative="1" as="geometry">
            <mxPoint x="95" y="740" as="sourcePoint" />
            <mxPoint x="165" y="740" as="targetPoint" />
          </mxGeometry>
        </mxCell>
        <mxCell id="VHTQGYUc6JYWtG76mnZ7-69" value="RicercaAnnunciEffettuata" style="text;html=1;align=center;verticalAlign=middle;whiteSpace=wrap;rounded=0;" vertex="1" parent="VHTQGYUc6JYWtG76mnZ7-14">
          <mxGeometry x="200" y="730" width="142.5" height="30" as="geometry" />
        </mxCell>
        <mxCell id="VHTQGYUc6JYWtG76mnZ7-70" value="" style="endArrow=none;dashed=1;html=1;dashPattern=1 3;strokeWidth=2;rounded=0;" edge="1" parent="VHTQGYUc6JYWtG76mnZ7-14">
          <mxGeometry width="50" height="50" relative="1" as="geometry">
            <mxPoint x="95" y="780" as="sourcePoint" />
            <mxPoint x="165" y="780" as="targetPoint" />
          </mxGeometry>
        </mxCell>
        <mxCell id="VHTQGYUc6JYWtG76mnZ7-72" value="User" style="text;html=1;align=center;verticalAlign=middle;whiteSpace=wrap;rounded=0;" vertex="1" parent="VHTQGYUc6JYWtG76mnZ7-14">
          <mxGeometry x="200" y="776.25" width="37.5" height="25" as="geometry" />
        </mxCell>
        <mxCell id="VHTQGYUc6JYWtG76mnZ7-73" value="" style="whiteSpace=wrap;html=1;shape=mxgraph.basic.document;strokeColor=#FFFFFF;fillColor=#000000;" vertex="1" parent="VHTQGYUc6JYWtG76mnZ7-14">
          <mxGeometry x="165" y="110" width="30" height="37.5" as="geometry" />
        </mxCell>
        <mxCell id="VHTQGYUc6JYWtG76mnZ7-74" value="" style="whiteSpace=wrap;html=1;shape=mxgraph.basic.document;strokeColor=#FFFFFF;fillColor=#000000;" vertex="1" parent="VHTQGYUc6JYWtG76mnZ7-14">
          <mxGeometry x="165" y="155" width="30" height="37.5" as="geometry" />
        </mxCell>
        <mxCell id="VHTQGYUc6JYWtG76mnZ7-75" value="" style="whiteSpace=wrap;html=1;shape=mxgraph.basic.document;strokeColor=#FFFFFF;fillColor=#000000;" vertex="1" parent="VHTQGYUc6JYWtG76mnZ7-14">
          <mxGeometry x="165" y="200" width="30" height="37.5" as="geometry" />
        </mxCell>
        <mxCell id="VHTQGYUc6JYWtG76mnZ7-76" value="" style="whiteSpace=wrap;html=1;shape=mxgraph.basic.document;strokeColor=#FFFFFF;fillColor=#000000;" vertex="1" parent="VHTQGYUc6JYWtG76mnZ7-14">
          <mxGeometry x="165" y="240" width="30" height="37.5" as="geometry" />
        </mxCell>
        <mxCell id="VHTQGYUc6JYWtG76mnZ7-77" value="" style="whiteSpace=wrap;html=1;shape=mxgraph.basic.document;strokeColor=#FFFFFF;fillColor=#000000;" vertex="1" parent="VHTQGYUc6JYWtG76mnZ7-14">
          <mxGeometry x="165" y="280" width="30" height="37.5" as="geometry" />
        </mxCell>
        <mxCell id="VHTQGYUc6JYWtG76mnZ7-78" value="" style="whiteSpace=wrap;html=1;shape=mxgraph.basic.document;strokeColor=#FFFFFF;fillColor=#000000;" vertex="1" parent="VHTQGYUc6JYWtG76mnZ7-14">
          <mxGeometry x="165" y="320" width="30" height="37.5" as="geometry" />
        </mxCell>
        <mxCell id="VHTQGYUc6JYWtG76mnZ7-79" value="" style="whiteSpace=wrap;html=1;shape=mxgraph.basic.document;strokeColor=#FFFFFF;fillColor=#000000;" vertex="1" parent="VHTQGYUc6JYWtG76mnZ7-14">
          <mxGeometry x="165" y="360" width="30" height="37.5" as="geometry" />
        </mxCell>
        <mxCell id="VHTQGYUc6JYWtG76mnZ7-80" value="&lt;font style=&quot;font-size: 10px;&quot;&gt;Contatto&lt;/font&gt;" style="text;html=1;align=center;verticalAlign=middle;whiteSpace=wrap;rounded=0;" vertex="1" parent="VHTQGYUc6JYWtG76mnZ7-14">
          <mxGeometry x="195" y="361.25" width="60" height="35" as="geometry" />
        </mxCell>
        <mxCell id="VHTQGYUc6JYWtG76mnZ7-81" value="" style="endArrow=none;dashed=1;html=1;dashPattern=1 3;strokeWidth=2;rounded=0;" edge="1" parent="VHTQGYUc6JYWtG76mnZ7-14">
          <mxGeometry width="50" height="50" relative="1" as="geometry">
            <mxPoint x="90" y="410" as="sourcePoint" />
            <mxPoint x="160" y="410" as="targetPoint" />
          </mxGeometry>
        </mxCell>
        <mxCell id="VHTQGYUc6JYWtG76mnZ7-82" value="" style="whiteSpace=wrap;html=1;shape=mxgraph.basic.document;strokeColor=#FFFFFF;fillColor=#000000;" vertex="1" parent="VHTQGYUc6JYWtG76mnZ7-14">
          <mxGeometry x="165" y="400" width="30" height="37.5" as="geometry" />
        </mxCell>
        <mxCell id="VHTQGYUc6JYWtG76mnZ7-83" value="" style="whiteSpace=wrap;html=1;shape=mxgraph.basic.document;strokeColor=#FFFFFF;fillColor=#000000;" vertex="1" parent="VHTQGYUc6JYWtG76mnZ7-14">
          <mxGeometry x="165" y="440" width="30" height="37.5" as="geometry" />
        </mxCell>
        <mxCell id="VHTQGYUc6JYWtG76mnZ7-84" value="" style="whiteSpace=wrap;html=1;shape=mxgraph.basic.document;strokeColor=#FFFFFF;fillColor=#000000;" vertex="1" parent="VHTQGYUc6JYWtG76mnZ7-14">
          <mxGeometry x="165" y="480" width="30" height="37.5" as="geometry" />
        </mxCell>
        <mxCell id="VHTQGYUc6JYWtG76mnZ7-85" value="" style="whiteSpace=wrap;html=1;shape=mxgraph.basic.document;strokeColor=#FFFFFF;fillColor=#000000;" vertex="1" parent="VHTQGYUc6JYWtG76mnZ7-14">
          <mxGeometry x="165" y="525" width="30" height="37.5" as="geometry" />
        </mxCell>
        <mxCell id="VHTQGYUc6JYWtG76mnZ7-86" value="" style="whiteSpace=wrap;html=1;shape=mxgraph.basic.document;strokeColor=#FFFFFF;fillColor=#000000;" vertex="1" parent="VHTQGYUc6JYWtG76mnZ7-14">
          <mxGeometry x="165" y="570" width="30" height="37.5" as="geometry" />
        </mxCell>
        <mxCell id="VHTQGYUc6JYWtG76mnZ7-87" value="" style="whiteSpace=wrap;html=1;shape=mxgraph.basic.document;strokeColor=#FFFFFF;fillColor=#000000;" vertex="1" parent="VHTQGYUc6JYWtG76mnZ7-14">
          <mxGeometry x="165" y="610" width="30" height="37.5" as="geometry" />
        </mxCell>
        <mxCell id="VHTQGYUc6JYWtG76mnZ7-88" value="" style="whiteSpace=wrap;html=1;shape=mxgraph.basic.document;strokeColor=#FFFFFF;fillColor=#000000;" vertex="1" parent="VHTQGYUc6JYWtG76mnZ7-14">
          <mxGeometry x="165" y="650" width="30" height="37.5" as="geometry" />
        </mxCell>
        <mxCell id="VHTQGYUc6JYWtG76mnZ7-89" value="" style="whiteSpace=wrap;html=1;shape=mxgraph.basic.document;strokeColor=#FFFFFF;fillColor=#000000;" vertex="1" parent="VHTQGYUc6JYWtG76mnZ7-14">
          <mxGeometry x="165" y="690" width="30" height="37.5" as="geometry" />
        </mxCell>
        <mxCell id="VHTQGYUc6JYWtG76mnZ7-90" value="" style="whiteSpace=wrap;html=1;shape=mxgraph.basic.document;strokeColor=#FFFFFF;fillColor=#000000;" vertex="1" parent="VHTQGYUc6JYWtG76mnZ7-14">
          <mxGeometry x="165" y="730" width="30" height="37.5" as="geometry" />
        </mxCell>
        <mxCell id="VHTQGYUc6JYWtG76mnZ7-91" value="" style="whiteSpace=wrap;html=1;shape=mxgraph.basic.document;strokeColor=#FFFFFF;fillColor=#000000;" vertex="1" parent="VHTQGYUc6JYWtG76mnZ7-14">
          <mxGeometry x="165" y="770" width="30" height="37.5" as="geometry" />
        </mxCell>
        <mxCell id="VHTQGYUc6JYWtG76mnZ7-92" value="" style="endArrow=none;dashed=1;html=1;dashPattern=1 3;strokeWidth=2;rounded=0;" edge="1" parent="VHTQGYUc6JYWtG76mnZ7-14">
          <mxGeometry width="50" height="50" relative="1" as="geometry">
            <mxPoint x="90" y="860" as="sourcePoint" />
            <mxPoint x="160" y="860" as="targetPoint" />
          </mxGeometry>
        </mxCell>
        <mxCell id="VHTQGYUc6JYWtG76mnZ7-93" value="" style="html=1;verticalLabelPosition=bottom;align=center;labelBackgroundColor=#ffffff;verticalAlign=top;strokeWidth=2;strokeColor=#0080F0;shadow=0;dashed=0;shape=mxgraph.ios7.icons.folder;" vertex="1" parent="VHTQGYUc6JYWtG76mnZ7-14">
          <mxGeometry x="165" y="840" width="85" height="50" as="geometry" />
        </mxCell>
        <mxCell id="VHTQGYUc6JYWtG76mnZ7-94" value="Enumaration" style="text;html=1;align=center;verticalAlign=middle;whiteSpace=wrap;rounded=0;" vertex="1" parent="VHTQGYUc6JYWtG76mnZ7-14">
          <mxGeometry x="167.5" y="850" width="70" height="30" as="geometry" />
        </mxCell>
        <mxCell id="VHTQGYUc6JYWtG76mnZ7-95" value="" style="endArrow=none;dashed=1;html=1;rounded=0;" edge="1" parent="VHTQGYUc6JYWtG76mnZ7-14">
          <mxGeometry width="50" height="50" relative="1" as="geometry">
            <mxPoint x="210" y="1240" as="sourcePoint" />
            <mxPoint x="210" y="890" as="targetPoint" />
          </mxGeometry>
        </mxCell>
        <mxCell id="VHTQGYUc6JYWtG76mnZ7-96" value="" style="endArrow=none;dashed=1;html=1;dashPattern=1 3;strokeWidth=2;rounded=0;" edge="1" parent="VHTQGYUc6JYWtG76mnZ7-14">
          <mxGeometry width="50" height="50" relative="1" as="geometry">
            <mxPoint x="215" y="900" as="sourcePoint" />
            <mxPoint x="285" y="900" as="targetPoint" />
          </mxGeometry>
        </mxCell>
        <mxCell id="VHTQGYUc6JYWtG76mnZ7-97" value="" style="whiteSpace=wrap;html=1;shape=mxgraph.basic.document;strokeColor=#FFFFFF;fillColor=#000000;" vertex="1" parent="VHTQGYUc6JYWtG76mnZ7-14">
          <mxGeometry x="290" y="890" width="30" height="37.5" as="geometry" />
        </mxCell>
        <mxCell id="VHTQGYUc6JYWtG76mnZ7-98" value="AuthorityName" style="text;html=1;align=center;verticalAlign=middle;whiteSpace=wrap;rounded=0;" vertex="1" parent="VHTQGYUc6JYWtG76mnZ7-14">
          <mxGeometry x="325" y="902.5" width="95" height="17.5" as="geometry" />
        </mxCell>
        <mxCell id="VHTQGYUc6JYWtG76mnZ7-99" value="" style="endArrow=none;dashed=1;html=1;dashPattern=1 3;strokeWidth=2;rounded=0;" edge="1" parent="VHTQGYUc6JYWtG76mnZ7-14">
          <mxGeometry width="50" height="50" relative="1" as="geometry">
            <mxPoint x="215" y="940" as="sourcePoint" />
            <mxPoint x="285" y="940" as="targetPoint" />
          </mxGeometry>
        </mxCell>
        <mxCell id="VHTQGYUc6JYWtG76mnZ7-100" value="" style="whiteSpace=wrap;html=1;shape=mxgraph.basic.document;strokeColor=#FFFFFF;fillColor=#000000;" vertex="1" parent="VHTQGYUc6JYWtG76mnZ7-14">
          <mxGeometry x="290" y="940" width="30" height="37.5" as="geometry" />
        </mxCell>
        <mxCell id="VHTQGYUc6JYWtG76mnZ7-101" value="CategoriaNotificaName" style="text;html=1;align=center;verticalAlign=middle;whiteSpace=wrap;rounded=0;" vertex="1" parent="VHTQGYUc6JYWtG76mnZ7-14">
          <mxGeometry x="325" y="950" width="135" height="20" as="geometry" />
        </mxCell>
        <mxCell id="VHTQGYUc6JYWtG76mnZ7-102" value="" style="endArrow=none;dashed=1;html=1;dashPattern=1 3;strokeWidth=2;rounded=0;" edge="1" parent="VHTQGYUc6JYWtG76mnZ7-14">
          <mxGeometry width="50" height="50" relative="1" as="geometry">
            <mxPoint x="215" y="1000" as="sourcePoint" />
            <mxPoint x="285" y="1000" as="targetPoint" />
          </mxGeometry>
        </mxCell>
        <mxCell id="VHTQGYUc6JYWtG76mnZ7-103" value="" style="whiteSpace=wrap;html=1;shape=mxgraph.basic.document;strokeColor=#FFFFFF;fillColor=#000000;" vertex="1" parent="VHTQGYUc6JYWtG76mnZ7-14">
          <mxGeometry x="290" y="990" width="30" height="37.5" as="geometry" />
        </mxCell>
        <mxCell id="VHTQGYUc6JYWtG76mnZ7-104" value="ClasseEnergetica" style="text;html=1;align=center;verticalAlign=middle;whiteSpace=wrap;rounded=0;" vertex="1" parent="VHTQGYUc6JYWtG76mnZ7-14">
          <mxGeometry x="325" y="998.75" width="115" height="20" as="geometry" />
        </mxCell>
        <mxCell id="VHTQGYUc6JYWtG76mnZ7-105" value="" style="endArrow=none;dashed=1;html=1;dashPattern=1 3;strokeWidth=2;rounded=0;" edge="1" parent="VHTQGYUc6JYWtG76mnZ7-14">
          <mxGeometry width="50" height="50" relative="1" as="geometry">
            <mxPoint x="215" y="1058.25" as="sourcePoint" />
            <mxPoint x="285" y="1058.25" as="targetPoint" />
          </mxGeometry>
        </mxCell>
        <mxCell id="VHTQGYUc6JYWtG76mnZ7-106" value="" style="whiteSpace=wrap;html=1;shape=mxgraph.basic.document;strokeColor=#FFFFFF;fillColor=#000000;" vertex="1" parent="VHTQGYUc6JYWtG76mnZ7-14">
          <mxGeometry x="290" y="1040" width="30" height="37.5" as="geometry" />
        </mxCell>
        <mxCell id="VHTQGYUc6JYWtG76mnZ7-107" value="StatoProposta" style="text;html=1;align=center;verticalAlign=middle;whiteSpace=wrap;rounded=0;" vertex="1" parent="VHTQGYUc6JYWtG76mnZ7-14">
          <mxGeometry x="325" y="1048.75" width="90" height="20" as="geometry" />
        </mxCell>
        <mxCell id="VHTQGYUc6JYWtG76mnZ7-108" value="" style="endArrow=none;dashed=1;html=1;dashPattern=1 3;strokeWidth=2;rounded=0;" edge="1" parent="VHTQGYUc6JYWtG76mnZ7-14">
          <mxGeometry width="50" height="50" relative="1" as="geometry">
            <mxPoint x="215" y="1120" as="sourcePoint" />
            <mxPoint x="285" y="1120" as="targetPoint" />
          </mxGeometry>
        </mxCell>
        <mxCell id="VHTQGYUc6JYWtG76mnZ7-109" value="" style="whiteSpace=wrap;html=1;shape=mxgraph.basic.document;strokeColor=#FFFFFF;fillColor=#000000;" vertex="1" parent="VHTQGYUc6JYWtG76mnZ7-14">
          <mxGeometry x="290" y="1100" width="30" height="37.5" as="geometry" />
        </mxCell>
        <mxCell id="VHTQGYUc6JYWtG76mnZ7-110" value="TipoContratto" style="text;html=1;align=center;verticalAlign=middle;whiteSpace=wrap;rounded=0;" vertex="1" parent="VHTQGYUc6JYWtG76mnZ7-14">
          <mxGeometry x="335" y="1108.75" width="70" height="20" as="geometry" />
        </mxCell>
        <mxCell id="VHTQGYUc6JYWtG76mnZ7-111" value="" style="endArrow=none;dashed=1;html=1;dashPattern=1 3;strokeWidth=2;rounded=0;" edge="1" parent="VHTQGYUc6JYWtG76mnZ7-14">
          <mxGeometry width="50" height="50" relative="1" as="geometry">
            <mxPoint x="215" y="1160" as="sourcePoint" />
            <mxPoint x="285" y="1160" as="targetPoint" />
          </mxGeometry>
        </mxCell>
        <mxCell id="VHTQGYUc6JYWtG76mnZ7-112" value="" style="whiteSpace=wrap;html=1;shape=mxgraph.basic.document;strokeColor=#FFFFFF;fillColor=#000000;" vertex="1" parent="VHTQGYUc6JYWtG76mnZ7-14">
          <mxGeometry x="290" y="1150" width="30" height="37.5" as="geometry" />
        </mxCell>
        <mxCell id="VHTQGYUc6JYWtG76mnZ7-113" value="TipologiaImmobiliare" style="text;html=1;align=center;verticalAlign=middle;whiteSpace=wrap;rounded=0;" vertex="1" parent="VHTQGYUc6JYWtG76mnZ7-14">
          <mxGeometry x="332.5" y="1158.75" width="120" height="20" as="geometry" />
        </mxCell>
        <mxCell id="VHTQGYUc6JYWtG76mnZ7-114" value="" style="endArrow=none;dashed=1;html=1;dashPattern=1 3;strokeWidth=2;rounded=0;" edge="1" parent="VHTQGYUc6JYWtG76mnZ7-14">
          <mxGeometry width="50" height="50" relative="1" as="geometry">
            <mxPoint x="215" y="1220" as="sourcePoint" />
            <mxPoint x="285" y="1220" as="targetPoint" />
          </mxGeometry>
        </mxCell>
        <mxCell id="VHTQGYUc6JYWtG76mnZ7-115" value="" style="whiteSpace=wrap;html=1;shape=mxgraph.basic.document;strokeColor=#FFFFFF;fillColor=#000000;" vertex="1" parent="VHTQGYUc6JYWtG76mnZ7-14">
          <mxGeometry x="290" y="1210" width="30" height="37.5" as="geometry" />
        </mxCell>
        <mxCell id="VHTQGYUc6JYWtG76mnZ7-116" value="VicinoA" style="text;html=1;align=center;verticalAlign=middle;whiteSpace=wrap;rounded=0;" vertex="1" parent="VHTQGYUc6JYWtG76mnZ7-14">
          <mxGeometry x="325" y="1218.75" width="65" height="20" as="geometry" />
        </mxCell>
        <mxCell id="VHTQGYUc6JYWtG76mnZ7-117" value="" style="html=1;verticalLabelPosition=bottom;align=center;labelBackgroundColor=#ffffff;verticalAlign=top;strokeWidth=2;strokeColor=#0080F0;shadow=0;dashed=0;shape=mxgraph.ios7.icons.folder;" vertex="1" parent="VHTQGYUc6JYWtG76mnZ7-14">
          <mxGeometry x="540" y="40" width="110" height="70" as="geometry" />
        </mxCell>
        <mxCell id="VHTQGYUc6JYWtG76mnZ7-120" value="&lt;font style=&quot;font-size: 14px;&quot;&gt;&lt;b&gt;Service&lt;/b&gt;&lt;/font&gt;" style="text;html=1;align=center;verticalAlign=middle;whiteSpace=wrap;rounded=0;" vertex="1" parent="VHTQGYUc6JYWtG76mnZ7-14">
          <mxGeometry x="565" y="65" width="60" height="30" as="geometry" />
        </mxCell>
        <mxCell id="VHTQGYUc6JYWtG76mnZ7-121" value="" style="endArrow=none;dashed=1;html=1;dashPattern=1 3;strokeWidth=2;rounded=0;" edge="1" parent="VHTQGYUc6JYWtG76mnZ7-14">
          <mxGeometry width="50" height="50" relative="1" as="geometry">
            <mxPoint x="580" y="1000" as="sourcePoint" />
            <mxPoint x="580" y="110" as="targetPoint" />
          </mxGeometry>
        </mxCell>
        <mxCell id="VHTQGYUc6JYWtG76mnZ7-122" value="" style="endArrow=none;dashed=1;html=1;dashPattern=1 3;strokeWidth=2;rounded=0;" edge="1" parent="VHTQGYUc6JYWtG76mnZ7-14">
          <mxGeometry width="50" height="50" relative="1" as="geometry">
            <mxPoint x="590" y="128.25" as="sourcePoint" />
            <mxPoint x="660" y="128.25" as="targetPoint" />
          </mxGeometry>
        </mxCell>
        <mxCell id="VHTQGYUc6JYWtG76mnZ7-123" value="AgenziaImmobiliareService" style="text;html=1;align=center;verticalAlign=middle;whiteSpace=wrap;rounded=0;" vertex="1" parent="VHTQGYUc6JYWtG76mnZ7-14">
          <mxGeometry x="700" y="116.25" width="150" height="40" as="geometry" />
        </mxCell>
        <mxCell id="VHTQGYUc6JYWtG76mnZ7-124" value="" style="whiteSpace=wrap;html=1;shape=mxgraph.basic.document;strokeColor=#FFFFFF;fillColor=#000000;" vertex="1" parent="VHTQGYUc6JYWtG76mnZ7-14">
          <mxGeometry x="660" y="117.5" width="30" height="37.5" as="geometry" />
        </mxCell>
        <mxCell id="VHTQGYUc6JYWtG76mnZ7-125" value="" style="endArrow=none;dashed=1;html=1;dashPattern=1 3;strokeWidth=2;rounded=0;" edge="1" parent="VHTQGYUc6JYWtG76mnZ7-14">
          <mxGeometry width="50" height="50" relative="1" as="geometry">
            <mxPoint x="590" y="180.75" as="sourcePoint" />
            <mxPoint x="660" y="180.75" as="targetPoint" />
          </mxGeometry>
        </mxCell>
        <mxCell id="VHTQGYUc6JYWtG76mnZ7-126" value="" style="whiteSpace=wrap;html=1;shape=mxgraph.basic.document;strokeColor=#FFFFFF;fillColor=#000000;" vertex="1" parent="VHTQGYUc6JYWtG76mnZ7-14">
          <mxGeometry x="660" y="162.5" width="30" height="37.5" as="geometry" />
        </mxCell>
        <mxCell id="VHTQGYUc6JYWtG76mnZ7-127" value="AnnunciImmobileService" style="text;html=1;align=center;verticalAlign=middle;whiteSpace=wrap;rounded=0;" vertex="1" parent="VHTQGYUc6JYWtG76mnZ7-14">
          <mxGeometry x="700" y="162.5" width="140" height="40" as="geometry" />
        </mxCell>
        <mxCell id="VHTQGYUc6JYWtG76mnZ7-128" value="" style="endArrow=none;dashed=1;html=1;dashPattern=1 3;strokeWidth=2;rounded=0;" edge="1" parent="VHTQGYUc6JYWtG76mnZ7-14">
          <mxGeometry width="50" height="50" relative="1" as="geometry">
            <mxPoint x="590" y="228.25" as="sourcePoint" />
            <mxPoint x="660" y="228.25" as="targetPoint" />
          </mxGeometry>
        </mxCell>
        <mxCell id="VHTQGYUc6JYWtG76mnZ7-129" value="" style="whiteSpace=wrap;html=1;shape=mxgraph.basic.document;strokeColor=#FFFFFF;fillColor=#000000;" vertex="1" parent="VHTQGYUc6JYWtG76mnZ7-14">
          <mxGeometry x="660" y="210" width="30" height="37.5" as="geometry" />
        </mxCell>
        <mxCell id="VHTQGYUc6JYWtG76mnZ7-130" value="AuthService" style="text;html=1;align=center;verticalAlign=middle;whiteSpace=wrap;rounded=0;" vertex="1" parent="VHTQGYUc6JYWtG76mnZ7-14">
          <mxGeometry x="700" y="210" width="80" height="40" as="geometry" />
        </mxCell>
        <mxCell id="VHTQGYUc6JYWtG76mnZ7-131" value="" style="endArrow=none;dashed=1;html=1;dashPattern=1 3;strokeWidth=2;rounded=0;" edge="1" parent="VHTQGYUc6JYWtG76mnZ7-14">
          <mxGeometry width="50" height="50" relative="1" as="geometry">
            <mxPoint x="590" y="277.5" as="sourcePoint" />
            <mxPoint x="660" y="277.5" as="targetPoint" />
          </mxGeometry>
        </mxCell>
        <mxCell id="VHTQGYUc6JYWtG76mnZ7-132" value="" style="whiteSpace=wrap;html=1;shape=mxgraph.basic.document;strokeColor=#FFFFFF;fillColor=#000000;" vertex="1" parent="VHTQGYUc6JYWtG76mnZ7-14">
          <mxGeometry x="660" y="260" width="30" height="37.5" as="geometry" />
        </mxCell>
        <mxCell id="VHTQGYUc6JYWtG76mnZ7-133" value="" style="endArrow=none;dashed=1;html=1;dashPattern=1 3;strokeWidth=2;rounded=0;" edge="1" parent="VHTQGYUc6JYWtG76mnZ7-14">
          <mxGeometry width="50" height="50" relative="1" as="geometry">
            <mxPoint x="590" y="321.25" as="sourcePoint" />
            <mxPoint x="660" y="321.25" as="targetPoint" />
          </mxGeometry>
        </mxCell>
        <mxCell id="VHTQGYUc6JYWtG76mnZ7-134" value="CaratteristicheAggiuntiveService" style="text;html=1;align=center;verticalAlign=middle;whiteSpace=wrap;rounded=0;" vertex="1" parent="VHTQGYUc6JYWtG76mnZ7-14">
          <mxGeometry x="700" y="260" width="190" height="30" as="geometry" />
        </mxCell>
        <mxCell id="VHTQGYUc6JYWtG76mnZ7-135" value="" style="whiteSpace=wrap;html=1;shape=mxgraph.basic.document;strokeColor=#FFFFFF;fillColor=#000000;" vertex="1" parent="VHTQGYUc6JYWtG76mnZ7-14">
          <mxGeometry x="660" y="312.5" width="30" height="37.5" as="geometry" />
        </mxCell>
        <mxCell id="VHTQGYUc6JYWtG76mnZ7-136" value="ContrattoService" style="text;html=1;align=center;verticalAlign=middle;whiteSpace=wrap;rounded=0;" vertex="1" parent="VHTQGYUc6JYWtG76mnZ7-14">
          <mxGeometry x="700" y="317.5" width="100" height="30" as="geometry" />
        </mxCell>
        <mxCell id="VHTQGYUc6JYWtG76mnZ7-137" value="" style="endArrow=none;dashed=1;html=1;dashPattern=1 3;strokeWidth=2;rounded=0;" edge="1" parent="VHTQGYUc6JYWtG76mnZ7-14">
          <mxGeometry width="50" height="50" relative="1" as="geometry">
            <mxPoint x="590" y="380.75" as="sourcePoint" />
            <mxPoint x="660" y="380.75" as="targetPoint" />
          </mxGeometry>
        </mxCell>
        <mxCell id="VHTQGYUc6JYWtG76mnZ7-138" value="" style="whiteSpace=wrap;html=1;shape=mxgraph.basic.document;strokeColor=#FFFFFF;fillColor=#000000;" vertex="1" parent="VHTQGYUc6JYWtG76mnZ7-14">
          <mxGeometry x="660" y="362.5" width="30" height="37.5" as="geometry" />
        </mxCell>
        <mxCell id="VHTQGYUc6JYWtG76mnZ7-139" value="DatiImpiegatoService" style="text;html=1;align=center;verticalAlign=middle;whiteSpace=wrap;rounded=0;" vertex="1" parent="VHTQGYUc6JYWtG76mnZ7-14">
          <mxGeometry x="700" y="366.25" width="120" height="30" as="geometry" />
        </mxCell>
        <mxCell id="VHTQGYUc6JYWtG76mnZ7-140" value="" style="endArrow=none;dashed=1;html=1;dashPattern=1 3;strokeWidth=2;rounded=0;" edge="1" parent="VHTQGYUc6JYWtG76mnZ7-14">
          <mxGeometry width="50" height="50" relative="1" as="geometry">
            <mxPoint x="590" y="435" as="sourcePoint" />
            <mxPoint x="660" y="435" as="targetPoint" />
          </mxGeometry>
        </mxCell>
        <mxCell id="VHTQGYUc6JYWtG76mnZ7-141" value="" style="whiteSpace=wrap;html=1;shape=mxgraph.basic.document;strokeColor=#FFFFFF;fillColor=#000000;" vertex="1" parent="VHTQGYUc6JYWtG76mnZ7-14">
          <mxGeometry x="660" y="410" width="30" height="37.5" as="geometry" />
        </mxCell>
        <mxCell id="VHTQGYUc6JYWtG76mnZ7-142" value="EmailService" style="text;html=1;align=center;verticalAlign=middle;whiteSpace=wrap;rounded=0;" vertex="1" parent="VHTQGYUc6JYWtG76mnZ7-14">
          <mxGeometry x="700" y="413.75" width="80" height="30" as="geometry" />
        </mxCell>
        <mxCell id="VHTQGYUc6JYWtG76mnZ7-143" value="" style="endArrow=none;dashed=1;html=1;dashPattern=1 3;strokeWidth=2;rounded=0;" edge="1" parent="VHTQGYUc6JYWtG76mnZ7-14">
          <mxGeometry width="50" height="50" relative="1" as="geometry">
            <mxPoint x="590" y="480" as="sourcePoint" />
            <mxPoint x="660" y="480" as="targetPoint" />
          </mxGeometry>
        </mxCell>
        <mxCell id="VHTQGYUc6JYWtG76mnZ7-144" value="" style="whiteSpace=wrap;html=1;shape=mxgraph.basic.document;strokeColor=#FFFFFF;fillColor=#000000;" vertex="1" parent="VHTQGYUc6JYWtG76mnZ7-14">
          <mxGeometry x="660" y="460" width="30" height="37.5" as="geometry" />
        </mxCell>
        <mxCell id="VHTQGYUc6JYWtG76mnZ7-145" value="ImageUploaderService" style="text;html=1;align=center;verticalAlign=middle;whiteSpace=wrap;rounded=0;" vertex="1" parent="VHTQGYUc6JYWtG76mnZ7-14">
          <mxGeometry x="700" y="462.5" width="140" height="32.5" as="geometry" />
        </mxCell>
        <mxCell id="VHTQGYUc6JYWtG76mnZ7-146" value="" style="endArrow=none;dashed=1;html=1;dashPattern=1 3;strokeWidth=2;rounded=0;" edge="1" parent="VHTQGYUc6JYWtG76mnZ7-14">
          <mxGeometry width="50" height="50" relative="1" as="geometry">
            <mxPoint x="590" y="517.5" as="sourcePoint" />
            <mxPoint x="660" y="517.5" as="targetPoint" />
          </mxGeometry>
        </mxCell>
        <mxCell id="VHTQGYUc6JYWtG76mnZ7-147" value="" style="whiteSpace=wrap;html=1;shape=mxgraph.basic.document;strokeColor=#FFFFFF;fillColor=#000000;" vertex="1" parent="VHTQGYUc6JYWtG76mnZ7-14">
          <mxGeometry x="660" y="510" width="30" height="37.5" as="geometry" />
        </mxCell>
        <mxCell id="VHTQGYUc6JYWtG76mnZ7-148" value="ImmobileService" style="text;html=1;align=center;verticalAlign=middle;whiteSpace=wrap;rounded=0;" vertex="1" parent="VHTQGYUc6JYWtG76mnZ7-14">
          <mxGeometry x="700" y="512" width="100" height="32.5" as="geometry" />
        </mxCell>
        <mxCell id="VHTQGYUc6JYWtG76mnZ7-149" value="" style="endArrow=none;dashed=1;html=1;dashPattern=1 3;strokeWidth=2;rounded=0;" edge="1" parent="VHTQGYUc6JYWtG76mnZ7-14">
          <mxGeometry width="50" height="50" relative="1" as="geometry">
            <mxPoint x="590" y="562.5" as="sourcePoint" />
            <mxPoint x="660" y="562.5" as="targetPoint" />
          </mxGeometry>
        </mxCell>
        <mxCell id="VHTQGYUc6JYWtG76mnZ7-150" value="" style="whiteSpace=wrap;html=1;shape=mxgraph.basic.document;strokeColor=#FFFFFF;fillColor=#000000;" vertex="1" parent="VHTQGYUc6JYWtG76mnZ7-14">
          <mxGeometry x="660" y="557.5" width="30" height="37.5" as="geometry" />
        </mxCell>
        <mxCell id="VHTQGYUc6JYWtG76mnZ7-152" value="IndirizzoService" style="text;html=1;align=center;verticalAlign=middle;whiteSpace=wrap;rounded=0;" vertex="1" parent="VHTQGYUc6JYWtG76mnZ7-14">
          <mxGeometry x="700" y="557.5" width="100" height="32.5" as="geometry" />
        </mxCell>
        <mxCell id="VHTQGYUc6JYWtG76mnZ7-154" value="" style="endArrow=none;dashed=1;html=1;dashPattern=1 3;strokeWidth=2;rounded=0;" edge="1" parent="VHTQGYUc6JYWtG76mnZ7-14">
          <mxGeometry width="50" height="50" relative="1" as="geometry">
            <mxPoint x="590" y="618.25" as="sourcePoint" />
            <mxPoint x="660" y="618.25" as="targetPoint" />
          </mxGeometry>
        </mxCell>
        <mxCell id="VHTQGYUc6JYWtG76mnZ7-155" value="" style="whiteSpace=wrap;html=1;shape=mxgraph.basic.document;strokeColor=#FFFFFF;fillColor=#000000;" vertex="1" parent="VHTQGYUc6JYWtG76mnZ7-14">
          <mxGeometry x="660" y="607.5" width="30" height="37.5" as="geometry" />
        </mxCell>
        <mxCell id="VHTQGYUc6JYWtG76mnZ7-156" value="JwtService" style="text;html=1;align=center;verticalAlign=middle;whiteSpace=wrap;rounded=0;" vertex="1" parent="VHTQGYUc6JYWtG76mnZ7-14">
          <mxGeometry x="700" y="610" width="70" height="24.25" as="geometry" />
        </mxCell>
        <mxCell id="VHTQGYUc6JYWtG76mnZ7-157" value="" style="endArrow=none;dashed=1;html=1;dashPattern=1 3;strokeWidth=2;rounded=0;" edge="1" parent="VHTQGYUc6JYWtG76mnZ7-14">
          <mxGeometry width="50" height="50" relative="1" as="geometry">
            <mxPoint x="590" y="668.25" as="sourcePoint" />
            <mxPoint x="660" y="668.25" as="targetPoint" />
          </mxGeometry>
        </mxCell>
        <mxCell id="VHTQGYUc6JYWtG76mnZ7-158" value="" style="whiteSpace=wrap;html=1;shape=mxgraph.basic.document;strokeColor=#FFFFFF;fillColor=#000000;" vertex="1" parent="VHTQGYUc6JYWtG76mnZ7-14">
          <mxGeometry x="660" y="660.75" width="30" height="37.5" as="geometry" />
        </mxCell>
        <mxCell id="VHTQGYUc6JYWtG76mnZ7-159" value="NotificaService" style="text;html=1;align=center;verticalAlign=middle;whiteSpace=wrap;rounded=0;" vertex="1" parent="VHTQGYUc6JYWtG76mnZ7-14">
          <mxGeometry x="700" y="664" width="90" height="26" as="geometry" />
        </mxCell>
        <mxCell id="VHTQGYUc6JYWtG76mnZ7-160" value="" style="endArrow=none;dashed=1;html=1;dashPattern=1 3;strokeWidth=2;rounded=0;" edge="1" parent="VHTQGYUc6JYWtG76mnZ7-14">
          <mxGeometry width="50" height="50" relative="1" as="geometry">
            <mxPoint x="590" y="719.25" as="sourcePoint" />
            <mxPoint x="660" y="719.25" as="targetPoint" />
          </mxGeometry>
        </mxCell>
        <mxCell id="VHTQGYUc6JYWtG76mnZ7-161" value="" style="whiteSpace=wrap;html=1;shape=mxgraph.basic.document;strokeColor=#FFFFFF;fillColor=#000000;" vertex="1" parent="VHTQGYUc6JYWtG76mnZ7-14">
          <mxGeometry x="660" y="710" width="30" height="37.5" as="geometry" />
        </mxCell>
        <mxCell id="VHTQGYUc6JYWtG76mnZ7-162" value="PassworService" style="text;html=1;align=center;verticalAlign=middle;whiteSpace=wrap;rounded=0;" vertex="1" parent="VHTQGYUc6JYWtG76mnZ7-14">
          <mxGeometry x="700" y="715.75" width="90" height="26" as="geometry" />
        </mxCell>
        <mxCell id="VHTQGYUc6JYWtG76mnZ7-163" value="" style="endArrow=none;dashed=1;html=1;dashPattern=1 3;strokeWidth=2;rounded=0;" edge="1" parent="VHTQGYUc6JYWtG76mnZ7-14">
          <mxGeometry width="50" height="50" relative="1" as="geometry">
            <mxPoint x="590" y="767.5" as="sourcePoint" />
            <mxPoint x="660" y="767.5" as="targetPoint" />
          </mxGeometry>
        </mxCell>
        <mxCell id="VHTQGYUc6JYWtG76mnZ7-164" value="" style="whiteSpace=wrap;html=1;shape=mxgraph.basic.document;strokeColor=#FFFFFF;fillColor=#000000;" vertex="1" parent="VHTQGYUc6JYWtG76mnZ7-14">
          <mxGeometry x="660" y="760" width="30" height="37.5" as="geometry" />
        </mxCell>
        <mxCell id="VHTQGYUc6JYWtG76mnZ7-165" value="PropostaService" style="text;html=1;align=center;verticalAlign=middle;whiteSpace=wrap;rounded=0;" vertex="1" parent="VHTQGYUc6JYWtG76mnZ7-14">
          <mxGeometry x="700" y="760" width="90" height="26" as="geometry" />
        </mxCell>
        <mxCell id="VHTQGYUc6JYWtG76mnZ7-166" value="" style="endArrow=none;dashed=1;html=1;dashPattern=1 3;strokeWidth=2;rounded=0;" edge="1" parent="VHTQGYUc6JYWtG76mnZ7-14">
          <mxGeometry width="50" height="50" relative="1" as="geometry">
            <mxPoint x="590" y="820" as="sourcePoint" />
            <mxPoint x="660" y="820" as="targetPoint" />
          </mxGeometry>
        </mxCell>
        <mxCell id="VHTQGYUc6JYWtG76mnZ7-167" value="" style="whiteSpace=wrap;html=1;shape=mxgraph.basic.document;strokeColor=#FFFFFF;fillColor=#000000;" vertex="1" parent="VHTQGYUc6JYWtG76mnZ7-14">
          <mxGeometry x="660" y="812.5" width="30" height="37.5" as="geometry" />
        </mxCell>
        <mxCell id="VHTQGYUc6JYWtG76mnZ7-168" value="RicercaAnnunciEffettuataService" style="text;html=1;align=center;verticalAlign=middle;whiteSpace=wrap;rounded=0;" vertex="1" parent="VHTQGYUc6JYWtG76mnZ7-14">
          <mxGeometry x="700" y="807.5" width="175" height="36" as="geometry" />
        </mxCell>
        <mxCell id="VHTQGYUc6JYWtG76mnZ7-169" value="" style="endArrow=none;dashed=1;html=1;dashPattern=1 3;strokeWidth=2;rounded=0;" edge="1" parent="VHTQGYUc6JYWtG76mnZ7-14">
          <mxGeometry width="50" height="50" relative="1" as="geometry">
            <mxPoint x="590" y="870" as="sourcePoint" />
            <mxPoint x="660" y="870" as="targetPoint" />
          </mxGeometry>
        </mxCell>
        <mxCell id="VHTQGYUc6JYWtG76mnZ7-170" value="" style="whiteSpace=wrap;html=1;shape=mxgraph.basic.document;strokeColor=#FFFFFF;fillColor=#000000;" vertex="1" parent="VHTQGYUc6JYWtG76mnZ7-14">
          <mxGeometry x="660" y="860" width="30" height="37.5" as="geometry" />
        </mxCell>
        <mxCell id="VHTQGYUc6JYWtG76mnZ7-171" value="TipologiaImmobileService" style="text;html=1;align=center;verticalAlign=middle;whiteSpace=wrap;rounded=0;" vertex="1" parent="VHTQGYUc6JYWtG76mnZ7-14">
          <mxGeometry x="697.5" y="860.75" width="145" height="36" as="geometry" />
        </mxCell>
        <mxCell id="VHTQGYUc6JYWtG76mnZ7-172" value="" style="endArrow=none;dashed=1;html=1;dashPattern=1 3;strokeWidth=2;rounded=0;" edge="1" parent="VHTQGYUc6JYWtG76mnZ7-14">
          <mxGeometry width="50" height="50" relative="1" as="geometry">
            <mxPoint x="590" y="920" as="sourcePoint" />
            <mxPoint x="660" y="920" as="targetPoint" />
          </mxGeometry>
        </mxCell>
        <mxCell id="VHTQGYUc6JYWtG76mnZ7-173" value="" style="whiteSpace=wrap;html=1;shape=mxgraph.basic.document;strokeColor=#FFFFFF;fillColor=#000000;" vertex="1" parent="VHTQGYUc6JYWtG76mnZ7-14">
          <mxGeometry x="660" y="912.5" width="30" height="37.5" as="geometry" />
        </mxCell>
        <mxCell id="VHTQGYUc6JYWtG76mnZ7-174" value="UserService" style="text;html=1;align=center;verticalAlign=middle;whiteSpace=wrap;rounded=0;" vertex="1" parent="VHTQGYUc6JYWtG76mnZ7-14">
          <mxGeometry x="700" y="914" width="75" height="36" as="geometry" />
        </mxCell>
        <mxCell id="VHTQGYUc6JYWtG76mnZ7-175" value="" style="endArrow=classic;startArrow=classic;html=1;rounded=0;" edge="1" parent="1">
          <mxGeometry width="50" height="50" relative="1" as="geometry">
            <mxPoint x="960" y="640" as="sourcePoint" />
            <mxPoint x="1260" y="640" as="targetPoint" />
          </mxGeometry>
        </mxCell>
        <mxCell id="VHTQGYUc6JYWtG76mnZ7-176" value="&lt;font style=&quot;font-size: 16px;&quot;&gt;REPOSITORY&lt;/font&gt;" style="swimlane;whiteSpace=wrap;html=1;" vertex="1" parent="1">
          <mxGeometry x="1260" y="410" width="630" height="450" as="geometry" />
        </mxCell>
        <mxCell id="VHTQGYUc6JYWtG76mnZ7-177" value="" style="whiteSpace=wrap;html=1;shape=mxgraph.basic.document;strokeColor=#FFFFFF;fillColor=#000000;" vertex="1" parent="VHTQGYUc6JYWtG76mnZ7-176">
          <mxGeometry x="100" y="60" width="30" height="37.5" as="geometry" />
        </mxCell>
        <mxCell id="VHTQGYUc6JYWtG76mnZ7-178" value="AgenziaImmobiliareRepository" style="text;html=1;align=center;verticalAlign=middle;whiteSpace=wrap;rounded=0;" vertex="1" parent="VHTQGYUc6JYWtG76mnZ7-176">
          <mxGeometry x="30" y="105" width="170" height="25" as="geometry" />
        </mxCell>
        <mxCell id="VHTQGYUc6JYWtG76mnZ7-179" value="" style="whiteSpace=wrap;html=1;shape=mxgraph.basic.document;strokeColor=#FFFFFF;fillColor=#000000;" vertex="1" parent="VHTQGYUc6JYWtG76mnZ7-176">
          <mxGeometry x="290" y="60" width="30" height="37.5" as="geometry" />
        </mxCell>
        <mxCell id="VHTQGYUc6JYWtG76mnZ7-180" value="AnnuncioImmobiliareRepository" style="text;html=1;align=center;verticalAlign=middle;whiteSpace=wrap;rounded=0;" vertex="1" parent="VHTQGYUc6JYWtG76mnZ7-176">
          <mxGeometry x="230" y="105" width="170" height="25" as="geometry" />
        </mxCell>
        <mxCell id="VHTQGYUc6JYWtG76mnZ7-181" value="" style="whiteSpace=wrap;html=1;shape=mxgraph.basic.document;strokeColor=#FFFFFF;fillColor=#000000;" vertex="1" parent="VHTQGYUc6JYWtG76mnZ7-176">
          <mxGeometry x="500" y="60" width="30" height="37.5" as="geometry" />
        </mxCell>
        <mxCell id="VHTQGYUc6JYWtG76mnZ7-182" value="AuthorityRepository" style="text;html=1;align=center;verticalAlign=middle;whiteSpace=wrap;rounded=0;" vertex="1" parent="VHTQGYUc6JYWtG76mnZ7-176">
          <mxGeometry x="430" y="105" width="170" height="25" as="geometry" />
        </mxCell>
        <mxCell id="VHTQGYUc6JYWtG76mnZ7-183" value="" style="whiteSpace=wrap;html=1;shape=mxgraph.basic.document;strokeColor=#FFFFFF;fillColor=#000000;" vertex="1" parent="VHTQGYUc6JYWtG76mnZ7-176">
          <mxGeometry x="100" y="150" width="30" height="37.5" as="geometry" />
        </mxCell>
        <mxCell id="VHTQGYUc6JYWtG76mnZ7-184" value="CategoriaNotificaRepository" style="text;html=1;align=center;verticalAlign=middle;whiteSpace=wrap;rounded=0;" vertex="1" parent="VHTQGYUc6JYWtG76mnZ7-176">
          <mxGeometry x="30" y="195" width="170" height="25" as="geometry" />
        </mxCell>
        <mxCell id="VHTQGYUc6JYWtG76mnZ7-185" value="" style="whiteSpace=wrap;html=1;shape=mxgraph.basic.document;strokeColor=#FFFFFF;fillColor=#000000;" vertex="1" parent="VHTQGYUc6JYWtG76mnZ7-176">
          <mxGeometry x="290" y="150" width="30" height="37.5" as="geometry" />
        </mxCell>
        <mxCell id="VHTQGYUc6JYWtG76mnZ7-186" value="ContrattoRepository" style="text;html=1;align=center;verticalAlign=middle;whiteSpace=wrap;rounded=0;" vertex="1" parent="VHTQGYUc6JYWtG76mnZ7-176">
          <mxGeometry x="220" y="195" width="170" height="25" as="geometry" />
        </mxCell>
        <mxCell id="VHTQGYUc6JYWtG76mnZ7-187" value="" style="whiteSpace=wrap;html=1;shape=mxgraph.basic.document;strokeColor=#FFFFFF;fillColor=#000000;" vertex="1" parent="VHTQGYUc6JYWtG76mnZ7-176">
          <mxGeometry x="500" y="150" width="30" height="37.5" as="geometry" />
        </mxCell>
        <mxCell id="VHTQGYUc6JYWtG76mnZ7-188" value="DatiImpiegatoRepository" style="text;html=1;align=center;verticalAlign=middle;whiteSpace=wrap;rounded=0;" vertex="1" parent="VHTQGYUc6JYWtG76mnZ7-176">
          <mxGeometry x="430" y="195" width="170" height="25" as="geometry" />
        </mxCell>
        <mxCell id="VHTQGYUc6JYWtG76mnZ7-189" value="" style="whiteSpace=wrap;html=1;shape=mxgraph.basic.document;strokeColor=#FFFFFF;fillColor=#000000;" vertex="1" parent="VHTQGYUc6JYWtG76mnZ7-176">
          <mxGeometry x="100" y="240" width="30" height="37.5" as="geometry" />
        </mxCell>
        <mxCell id="VHTQGYUc6JYWtG76mnZ7-190" value="NotificaRepository" style="text;html=1;align=center;verticalAlign=middle;whiteSpace=wrap;rounded=0;" vertex="1" parent="VHTQGYUc6JYWtG76mnZ7-176">
          <mxGeometry x="30" y="285" width="170" height="25" as="geometry" />
        </mxCell>
        <mxCell id="VHTQGYUc6JYWtG76mnZ7-191" value="" style="whiteSpace=wrap;html=1;shape=mxgraph.basic.document;strokeColor=#FFFFFF;fillColor=#000000;" vertex="1" parent="VHTQGYUc6JYWtG76mnZ7-176">
          <mxGeometry x="290" y="240" width="30" height="37.5" as="geometry" />
        </mxCell>
        <mxCell id="VHTQGYUc6JYWtG76mnZ7-192" value="PropostaRepository" style="text;html=1;align=center;verticalAlign=middle;whiteSpace=wrap;rounded=0;" vertex="1" parent="VHTQGYUc6JYWtG76mnZ7-176">
          <mxGeometry x="220" y="285" width="170" height="25" as="geometry" />
        </mxCell>
        <mxCell id="VHTQGYUc6JYWtG76mnZ7-193" value="" style="whiteSpace=wrap;html=1;shape=mxgraph.basic.document;strokeColor=#FFFFFF;fillColor=#000000;" vertex="1" parent="VHTQGYUc6JYWtG76mnZ7-176">
          <mxGeometry x="500" y="240" width="30" height="37.5" as="geometry" />
        </mxCell>
        <mxCell id="VHTQGYUc6JYWtG76mnZ7-194" value="RicercaAnnunciEffettuataRepository" style="text;html=1;align=center;verticalAlign=middle;whiteSpace=wrap;rounded=0;" vertex="1" parent="VHTQGYUc6JYWtG76mnZ7-176">
          <mxGeometry x="420" y="285" width="200" height="25" as="geometry" />
        </mxCell>
        <mxCell id="VHTQGYUc6JYWtG76mnZ7-195" value="" style="whiteSpace=wrap;html=1;shape=mxgraph.basic.document;strokeColor=#FFFFFF;fillColor=#000000;" vertex="1" parent="VHTQGYUc6JYWtG76mnZ7-176">
          <mxGeometry x="290" y="330" width="30" height="37.5" as="geometry" />
        </mxCell>
        <mxCell id="VHTQGYUc6JYWtG76mnZ7-196" value="UserRepository" style="text;html=1;align=center;verticalAlign=middle;whiteSpace=wrap;rounded=0;" vertex="1" parent="VHTQGYUc6JYWtG76mnZ7-176">
          <mxGeometry x="220" y="380" width="170" height="25" as="geometry" />
        </mxCell>
        <mxCell id="VHTQGYUc6JYWtG76mnZ7-197" value="" style="endArrow=classic;startArrow=classic;html=1;rounded=0;" edge="1" parent="1">
          <mxGeometry width="50" height="50" relative="1" as="geometry">
            <mxPoint x="1890" y="640" as="sourcePoint" />
            <mxPoint x="2130" y="640" as="targetPoint" />
          </mxGeometry>
        </mxCell>
        <mxCell id="VHTQGYUc6JYWtG76mnZ7-199" value="" style="image;aspect=fixed;perimeter=ellipsePerimeter;html=1;align=center;shadow=0;dashed=0;spacingTop=3;image=img/lib/active_directory/database_partition_2.svg;" vertex="1" parent="1">
          <mxGeometry x="2200" y="603.25" width="117.23" height="86.75" as="geometry" />
        </mxCell>
        <mxCell id="VHTQGYUc6JYWtG76mnZ7-200" value="&lt;font style=&quot;font-size: 16px;&quot;&gt;&lt;b&gt;Database&lt;/b&gt;&lt;/font&gt;" style="text;strokeColor=none;fillColor=none;align=left;verticalAlign=middle;spacingLeft=4;spacingRight=4;overflow=hidden;points=[[0,0.5],[1,0.5]];portConstraint=eastwest;rotatable=0;whiteSpace=wrap;html=1;" vertex="1" parent="1">
          <mxGeometry x="2218.61" y="690" width="80" height="30" as="geometry" />
        </mxCell>
        <mxCell id="VHTQGYUc6JYWtG76mnZ7-201" value="" style="endArrow=classic;startArrow=classic;html=1;rounded=0;" edge="1" parent="1">
          <mxGeometry width="50" height="50" relative="1" as="geometry">
            <mxPoint x="440" y="1610" as="sourcePoint" />
            <mxPoint x="440" y="1360" as="targetPoint" />
          </mxGeometry>
        </mxCell>
        <mxCell id="VHTQGYUc6JYWtG76mnZ7-202" value="Vertical Container" style="swimlane;whiteSpace=wrap;html=1;" vertex="1" parent="1">
          <mxGeometry x="340" y="1610" width="200" height="200" as="geometry" />
        </mxCell>
      </root>
    </mxGraphModel>
  </diagram>
</mxfile>
